<mxfile host="app.diagrams.net" modified="2023-01-23T18:28:08.419Z" agent="5.0 (X11; Linux x86_64) AppleWebKit/537.36 (KHTML, like Gecko) Chrome/107.0.0.0 Safari/537.36 Edg/107.0.1418.42" etag="7xdbvD_NXkRUixFwtVoB" version="20.8.10" type="github">
  <diagram id="R2lEEEUBdFMjLlhIrx00" name="Page-1">
    <mxGraphModel dx="1854" dy="1015" grid="0" gridSize="10" guides="1" tooltips="1" connect="1" arrows="1" fold="1" page="1" pageScale="1" pageWidth="1654" pageHeight="1169" math="0" shadow="0" extFonts="Permanent Marker^https://fonts.googleapis.com/css?family=Permanent+Marker">
      <root>
        <mxCell id="0" />
        <mxCell id="1" parent="0" />
        <mxCell id="7EVLLb8pi6bqAcfZyfd--1" value="Citizen" style="rounded=1;arcSize=10;whiteSpace=wrap;html=1;align=center;fontStyle=1" vertex="1" parent="1">
          <mxGeometry x="375" y="123" width="100" height="40" as="geometry" />
        </mxCell>
        <mxCell id="7EVLLb8pi6bqAcfZyfd--2" value="patient" style="rounded=1;arcSize=10;whiteSpace=wrap;html=1;align=center;fontStyle=1" vertex="1" parent="1">
          <mxGeometry x="915" y="123" width="100" height="40" as="geometry" />
        </mxCell>
        <mxCell id="7EVLLb8pi6bqAcfZyfd--3" value="Doctor" style="rounded=1;arcSize=10;whiteSpace=wrap;html=1;align=center;fontStyle=1" vertex="1" parent="1">
          <mxGeometry x="635" y="433" width="100" height="40" as="geometry" />
        </mxCell>
        <mxCell id="7EVLLb8pi6bqAcfZyfd--4" value="Hospital" style="rounded=1;arcSize=10;whiteSpace=wrap;html=1;align=center;fontStyle=1" vertex="1" parent="1">
          <mxGeometry x="1115" y="433" width="100" height="40" as="geometry" />
        </mxCell>
        <mxCell id="7EVLLb8pi6bqAcfZyfd--5" value="Contact" style="rounded=1;arcSize=10;whiteSpace=wrap;html=1;align=center;fontStyle=1" vertex="1" parent="1">
          <mxGeometry x="100" y="303" width="100" height="40" as="geometry" />
        </mxCell>
        <mxCell id="7EVLLb8pi6bqAcfZyfd--6" value="vaccination" style="rounded=1;arcSize=10;whiteSpace=wrap;html=1;align=center;fontStyle=1" vertex="1" parent="1">
          <mxGeometry x="280" y="640" width="100" height="40" as="geometry" />
        </mxCell>
        <mxCell id="7EVLLb8pi6bqAcfZyfd--7" value="Vaccination Centres" style="rounded=1;arcSize=10;whiteSpace=wrap;html=1;align=center;fontStyle=1" vertex="1" parent="1">
          <mxGeometry x="209" y="989" width="100" height="50" as="geometry" />
        </mxCell>
        <mxCell id="7EVLLb8pi6bqAcfZyfd--8" value="Symptoms" style="rounded=1;arcSize=10;whiteSpace=wrap;html=1;align=center;fontStyle=1" vertex="1" parent="1">
          <mxGeometry x="1380" y="63" width="100" height="40" as="geometry" />
        </mxCell>
        <mxCell id="7EVLLb8pi6bqAcfZyfd--9" value="Testing" style="rounded=1;arcSize=10;whiteSpace=wrap;html=1;align=center;" vertex="1" parent="1">
          <mxGeometry x="1255" y="720" width="100" height="40" as="geometry" />
        </mxCell>
        <mxCell id="7EVLLb8pi6bqAcfZyfd--10" value="Testing Lab" style="rounded=1;arcSize=10;whiteSpace=wrap;html=1;align=center;" vertex="1" parent="1">
          <mxGeometry x="1255" y="944" width="100" height="40" as="geometry" />
        </mxCell>
        <mxCell id="7EVLLb8pi6bqAcfZyfd--11" value="Social Media" style="rounded=1;arcSize=10;whiteSpace=wrap;html=1;align=center;fontStyle=1" vertex="1" parent="1">
          <mxGeometry x="1520" y="400" width="100" height="50" as="geometry" />
        </mxCell>
        <mxCell id="7EVLLb8pi6bqAcfZyfd--12" value="ID" style="ellipse;whiteSpace=wrap;html=1;align=center;fontStyle=4;" vertex="1" parent="1">
          <mxGeometry x="315" y="23" width="100" height="40" as="geometry" />
        </mxCell>
        <mxCell id="7EVLLb8pi6bqAcfZyfd--13" value="ID" style="ellipse;whiteSpace=wrap;html=1;align=center;fontStyle=4;" vertex="1" parent="1">
          <mxGeometry x="795" y="373" width="100" height="40" as="geometry" />
        </mxCell>
        <mxCell id="7EVLLb8pi6bqAcfZyfd--14" value="ID" style="ellipse;whiteSpace=wrap;html=1;align=center;fontStyle=4;" vertex="1" parent="1">
          <mxGeometry x="1530" y="23" width="100" height="40" as="geometry" />
        </mxCell>
        <mxCell id="7EVLLb8pi6bqAcfZyfd--15" value="ID" style="ellipse;whiteSpace=wrap;html=1;align=center;fontStyle=4;" vertex="1" parent="1">
          <mxGeometry x="170" y="720" width="100" height="40" as="geometry" />
        </mxCell>
        <mxCell id="7EVLLb8pi6bqAcfZyfd--16" value="ID" style="ellipse;whiteSpace=wrap;html=1;align=center;fontStyle=4;" vertex="1" parent="1">
          <mxGeometry x="130" y="393" width="100" height="40" as="geometry" />
        </mxCell>
        <mxCell id="7EVLLb8pi6bqAcfZyfd--17" value="ID" style="ellipse;whiteSpace=wrap;html=1;align=center;fontStyle=4;" vertex="1" parent="1">
          <mxGeometry x="1255" y="478" width="100" height="40" as="geometry" />
        </mxCell>
        <mxCell id="7EVLLb8pi6bqAcfZyfd--18" value="ID" style="ellipse;whiteSpace=wrap;html=1;align=center;fontStyle=4;" vertex="1" parent="1">
          <mxGeometry x="89" y="1089" width="100" height="40" as="geometry" />
        </mxCell>
        <mxCell id="7EVLLb8pi6bqAcfZyfd--19" value="ID" style="ellipse;whiteSpace=wrap;html=1;align=center;fontStyle=4;" vertex="1" parent="1">
          <mxGeometry x="1390" y="1039" width="100" height="40" as="geometry" />
        </mxCell>
        <mxCell id="7EVLLb8pi6bqAcfZyfd--20" value="ID" style="ellipse;whiteSpace=wrap;html=1;align=center;fontStyle=4;" vertex="1" parent="1">
          <mxGeometry x="1490" y="525" width="100" height="40" as="geometry" />
        </mxCell>
        <mxCell id="7EVLLb8pi6bqAcfZyfd--21" value="ID" style="ellipse;whiteSpace=wrap;html=1;align=center;fontStyle=4;" vertex="1" parent="1">
          <mxGeometry x="825" y="23" width="100" height="40" as="geometry" />
        </mxCell>
        <mxCell id="7EVLLb8pi6bqAcfZyfd--22" value="ID" style="ellipse;whiteSpace=wrap;html=1;align=center;fontStyle=4;" vertex="1" parent="1">
          <mxGeometry x="1410" y="720" width="100" height="40" as="geometry" />
        </mxCell>
        <mxCell id="7EVLLb8pi6bqAcfZyfd--23" value="Name" style="ellipse;whiteSpace=wrap;html=1;align=center;" vertex="1" parent="1">
          <mxGeometry x="425" y="13" width="100" height="40" as="geometry" />
        </mxCell>
        <mxCell id="7EVLLb8pi6bqAcfZyfd--24" value="Age" style="ellipse;whiteSpace=wrap;html=1;align=center;" vertex="1" parent="1">
          <mxGeometry x="515" y="63" width="100" height="40" as="geometry" />
        </mxCell>
        <mxCell id="7EVLLb8pi6bqAcfZyfd--25" value="Address" style="ellipse;whiteSpace=wrap;html=1;align=center;" vertex="1" parent="1">
          <mxGeometry x="460" y="240" width="100" height="40" as="geometry" />
        </mxCell>
        <mxCell id="7EVLLb8pi6bqAcfZyfd--26" value="sex" style="ellipse;whiteSpace=wrap;html=1;align=center;" vertex="1" parent="1">
          <mxGeometry x="290" y="173" width="100" height="40" as="geometry" />
        </mxCell>
        <mxCell id="7EVLLb8pi6bqAcfZyfd--27" value="Phone Number" style="ellipse;whiteSpace=wrap;html=1;align=center;" vertex="1" parent="1">
          <mxGeometry x="220" y="73" width="120" height="50" as="geometry" />
        </mxCell>
        <mxCell id="7EVLLb8pi6bqAcfZyfd--28" value="Vaccination Status" style="ellipse;whiteSpace=wrap;html=1;align=center;" vertex="1" parent="1">
          <mxGeometry x="525" y="153" width="100" height="60" as="geometry" />
        </mxCell>
        <mxCell id="7EVLLb8pi6bqAcfZyfd--32" value="" style="endArrow=none;html=1;rounded=0;" edge="1" parent="1">
          <mxGeometry width="50" height="50" relative="1" as="geometry">
            <mxPoint x="475" y="123" as="sourcePoint" />
            <mxPoint x="525" y="93" as="targetPoint" />
          </mxGeometry>
        </mxCell>
        <mxCell id="7EVLLb8pi6bqAcfZyfd--33" value="" style="endArrow=none;html=1;rounded=0;exitX=1;exitY=1;exitDx=0;exitDy=0;" edge="1" parent="1" source="7EVLLb8pi6bqAcfZyfd--1" target="7EVLLb8pi6bqAcfZyfd--28">
          <mxGeometry width="50" height="50" relative="1" as="geometry">
            <mxPoint x="485" y="153" as="sourcePoint" />
            <mxPoint x="535" y="103" as="targetPoint" />
          </mxGeometry>
        </mxCell>
        <mxCell id="7EVLLb8pi6bqAcfZyfd--34" value="" style="endArrow=none;html=1;rounded=0;exitX=0.65;exitY=0.925;exitDx=0;exitDy=0;exitPerimeter=0;" edge="1" parent="1" source="7EVLLb8pi6bqAcfZyfd--1" target="7EVLLb8pi6bqAcfZyfd--25">
          <mxGeometry width="50" height="50" relative="1" as="geometry">
            <mxPoint x="495" y="163" as="sourcePoint" />
            <mxPoint x="545" y="113" as="targetPoint" />
            <Array as="points">
              <mxPoint x="440" y="260" />
            </Array>
          </mxGeometry>
        </mxCell>
        <mxCell id="7EVLLb8pi6bqAcfZyfd--35" value="" style="endArrow=none;html=1;rounded=0;entryX=0.5;entryY=1;entryDx=0;entryDy=0;exitX=0.5;exitY=0;exitDx=0;exitDy=0;" edge="1" parent="1" source="7EVLLb8pi6bqAcfZyfd--1" target="7EVLLb8pi6bqAcfZyfd--23">
          <mxGeometry width="50" height="50" relative="1" as="geometry">
            <mxPoint x="505" y="173" as="sourcePoint" />
            <mxPoint x="555" y="123" as="targetPoint" />
          </mxGeometry>
        </mxCell>
        <mxCell id="7EVLLb8pi6bqAcfZyfd--36" value="" style="endArrow=none;html=1;rounded=0;" edge="1" parent="1" target="7EVLLb8pi6bqAcfZyfd--12">
          <mxGeometry width="50" height="50" relative="1" as="geometry">
            <mxPoint x="375" y="123" as="sourcePoint" />
            <mxPoint x="565" y="133" as="targetPoint" />
          </mxGeometry>
        </mxCell>
        <mxCell id="7EVLLb8pi6bqAcfZyfd--37" value="" style="endArrow=none;html=1;rounded=0;entryX=0.25;entryY=1;entryDx=0;entryDy=0;exitX=0.715;exitY=0.019;exitDx=0;exitDy=0;exitPerimeter=0;" edge="1" parent="1" source="7EVLLb8pi6bqAcfZyfd--26" target="7EVLLb8pi6bqAcfZyfd--1">
          <mxGeometry width="50" height="50" relative="1" as="geometry">
            <mxPoint x="525" y="193" as="sourcePoint" />
            <mxPoint x="575" y="143" as="targetPoint" />
          </mxGeometry>
        </mxCell>
        <mxCell id="7EVLLb8pi6bqAcfZyfd--38" value="" style="endArrow=none;html=1;rounded=0;exitX=0;exitY=0;exitDx=0;exitDy=0;entryX=1.002;entryY=0.68;entryDx=0;entryDy=0;entryPerimeter=0;" edge="1" parent="1" source="7EVLLb8pi6bqAcfZyfd--1" target="7EVLLb8pi6bqAcfZyfd--27">
          <mxGeometry width="50" height="50" relative="1" as="geometry">
            <mxPoint x="535" y="203" as="sourcePoint" />
            <mxPoint x="585" y="153" as="targetPoint" />
          </mxGeometry>
        </mxCell>
        <mxCell id="7EVLLb8pi6bqAcfZyfd--39" value="becomes a" style="shape=rhombus;perimeter=rhombusPerimeter;whiteSpace=wrap;html=1;align=center;" vertex="1" parent="1">
          <mxGeometry x="685" y="113" width="120" height="60" as="geometry" />
        </mxCell>
        <mxCell id="7EVLLb8pi6bqAcfZyfd--40" value="" style="endArrow=none;html=1;rounded=0;exitX=1;exitY=0.5;exitDx=0;exitDy=0;entryX=0;entryY=0.5;entryDx=0;entryDy=0;" edge="1" parent="1" source="7EVLLb8pi6bqAcfZyfd--1" target="7EVLLb8pi6bqAcfZyfd--39">
          <mxGeometry width="50" height="50" relative="1" as="geometry">
            <mxPoint x="905" y="423" as="sourcePoint" />
            <mxPoint x="955" y="373" as="targetPoint" />
          </mxGeometry>
        </mxCell>
        <mxCell id="7EVLLb8pi6bqAcfZyfd--41" value="" style="endArrow=none;html=1;rounded=0;exitX=1;exitY=0.5;exitDx=0;exitDy=0;entryX=0;entryY=0.5;entryDx=0;entryDy=0;" edge="1" parent="1" source="7EVLLb8pi6bqAcfZyfd--39" target="7EVLLb8pi6bqAcfZyfd--2">
          <mxGeometry width="50" height="50" relative="1" as="geometry">
            <mxPoint x="545" y="213" as="sourcePoint" />
            <mxPoint x="595" y="163" as="targetPoint" />
          </mxGeometry>
        </mxCell>
        <mxCell id="7EVLLb8pi6bqAcfZyfd--42" value="" style="endArrow=none;html=1;rounded=0;entryX=0.5;entryY=1;entryDx=0;entryDy=0;" edge="1" parent="1" source="7EVLLb8pi6bqAcfZyfd--2" target="7EVLLb8pi6bqAcfZyfd--21">
          <mxGeometry width="50" height="50" relative="1" as="geometry">
            <mxPoint x="555" y="223" as="sourcePoint" />
            <mxPoint x="605" y="173" as="targetPoint" />
          </mxGeometry>
        </mxCell>
        <mxCell id="7EVLLb8pi6bqAcfZyfd--43" value="data source" style="ellipse;whiteSpace=wrap;html=1;align=center;" vertex="1" parent="1">
          <mxGeometry x="995" y="23" width="100" height="40" as="geometry" />
        </mxCell>
        <mxCell id="7EVLLb8pi6bqAcfZyfd--44" value="admission date" style="ellipse;whiteSpace=wrap;html=1;align=center;" vertex="1" parent="1">
          <mxGeometry x="1075" y="123" width="100" height="40" as="geometry" />
        </mxCell>
        <mxCell id="7EVLLb8pi6bqAcfZyfd--45" value="has recovered" style="ellipse;whiteSpace=wrap;html=1;align=center;" vertex="1" parent="1">
          <mxGeometry x="795" y="233" width="100" height="40" as="geometry" />
        </mxCell>
        <mxCell id="7EVLLb8pi6bqAcfZyfd--46" value="is deceased" style="ellipse;whiteSpace=wrap;html=1;align=center;" vertex="1" parent="1">
          <mxGeometry x="845" y="303" width="100" height="40" as="geometry" />
        </mxCell>
        <mxCell id="7EVLLb8pi6bqAcfZyfd--47" value="" style="endArrow=none;html=1;rounded=0;entryX=0.5;entryY=1;entryDx=0;entryDy=0;exitX=0.653;exitY=-0.012;exitDx=0;exitDy=0;exitPerimeter=0;" edge="1" parent="1" source="7EVLLb8pi6bqAcfZyfd--2" target="7EVLLb8pi6bqAcfZyfd--43">
          <mxGeometry width="50" height="50" relative="1" as="geometry">
            <mxPoint x="952.5" y="133" as="sourcePoint" />
            <mxPoint x="885" y="73" as="targetPoint" />
          </mxGeometry>
        </mxCell>
        <mxCell id="7EVLLb8pi6bqAcfZyfd--48" value="" style="endArrow=none;html=1;rounded=0;entryX=0;entryY=0.5;entryDx=0;entryDy=0;exitX=1;exitY=0.5;exitDx=0;exitDy=0;" edge="1" parent="1" source="7EVLLb8pi6bqAcfZyfd--2" target="7EVLLb8pi6bqAcfZyfd--44">
          <mxGeometry width="50" height="50" relative="1" as="geometry">
            <mxPoint x="962.5" y="143" as="sourcePoint" />
            <mxPoint x="895" y="83" as="targetPoint" />
          </mxGeometry>
        </mxCell>
        <mxCell id="7EVLLb8pi6bqAcfZyfd--49" value="" style="endArrow=none;html=1;rounded=0;entryX=0.35;entryY=0.925;entryDx=0;entryDy=0;exitX=0.353;exitY=-0.012;exitDx=0;exitDy=0;exitPerimeter=0;entryPerimeter=0;" edge="1" parent="1" source="7EVLLb8pi6bqAcfZyfd--46" target="7EVLLb8pi6bqAcfZyfd--2">
          <mxGeometry width="50" height="50" relative="1" as="geometry">
            <mxPoint x="972.5" y="153" as="sourcePoint" />
            <mxPoint x="905" y="93" as="targetPoint" />
          </mxGeometry>
        </mxCell>
        <mxCell id="7EVLLb8pi6bqAcfZyfd--50" value="" style="endArrow=none;html=1;rounded=0;entryX=0.703;entryY=0.019;entryDx=0;entryDy=0;exitX=0.25;exitY=1;exitDx=0;exitDy=0;entryPerimeter=0;" edge="1" parent="1" source="7EVLLb8pi6bqAcfZyfd--2" target="7EVLLb8pi6bqAcfZyfd--45">
          <mxGeometry width="50" height="50" relative="1" as="geometry">
            <mxPoint x="982.5" y="163" as="sourcePoint" />
            <mxPoint x="915" y="103" as="targetPoint" />
          </mxGeometry>
        </mxCell>
        <mxCell id="7EVLLb8pi6bqAcfZyfd--59" style="edgeStyle=orthogonalEdgeStyle;rounded=0;orthogonalLoop=1;jettySize=auto;html=1;" edge="1" parent="1" source="7EVLLb8pi6bqAcfZyfd--51" target="7EVLLb8pi6bqAcfZyfd--3">
          <mxGeometry relative="1" as="geometry" />
        </mxCell>
        <mxCell id="7EVLLb8pi6bqAcfZyfd--51" value="is treated by" style="shape=rhombus;perimeter=rhombusPerimeter;whiteSpace=wrap;html=1;align=center;" vertex="1" parent="1">
          <mxGeometry x="655" y="253" width="120" height="60" as="geometry" />
        </mxCell>
        <mxCell id="7EVLLb8pi6bqAcfZyfd--52" value="" style="endArrow=none;html=1;rounded=0;entryX=0.679;entryY=0.2;entryDx=0;entryDy=0;exitX=0;exitY=0.75;exitDx=0;exitDy=0;entryPerimeter=0;" edge="1" parent="1" source="7EVLLb8pi6bqAcfZyfd--2" target="7EVLLb8pi6bqAcfZyfd--51">
          <mxGeometry width="50" height="50" relative="1" as="geometry">
            <mxPoint x="1025" y="153" as="sourcePoint" />
            <mxPoint x="1085" y="153" as="targetPoint" />
          </mxGeometry>
        </mxCell>
        <mxCell id="7EVLLb8pi6bqAcfZyfd--54" value="" style="endArrow=none;html=1;rounded=0;entryX=0;entryY=0.5;entryDx=0;entryDy=0;exitX=1;exitY=0.5;exitDx=0;exitDy=0;entryPerimeter=0;" edge="1" parent="1" source="7EVLLb8pi6bqAcfZyfd--3" target="7EVLLb8pi6bqAcfZyfd--13">
          <mxGeometry width="50" height="50" relative="1" as="geometry">
            <mxPoint x="305" y="583" as="sourcePoint" />
            <mxPoint x="365" y="583" as="targetPoint" />
          </mxGeometry>
        </mxCell>
        <mxCell id="7EVLLb8pi6bqAcfZyfd--102" style="edgeStyle=orthogonalEdgeStyle;rounded=0;orthogonalLoop=1;jettySize=auto;html=1;entryX=0.853;entryY=1.007;entryDx=0;entryDy=0;entryPerimeter=0;" edge="1" parent="1">
          <mxGeometry relative="1" as="geometry">
            <mxPoint x="595" y="289" as="sourcePoint" />
            <mxPoint x="460.3000000000002" y="159.27999999999997" as="targetPoint" />
            <Array as="points">
              <mxPoint x="595" y="226" />
              <mxPoint x="460" y="226" />
            </Array>
          </mxGeometry>
        </mxCell>
        <mxCell id="7EVLLb8pi6bqAcfZyfd--55" value="is a" style="shape=rhombus;perimeter=rhombusPerimeter;whiteSpace=wrap;html=1;align=center;" vertex="1" parent="1">
          <mxGeometry x="535" y="293" width="120" height="60" as="geometry" />
        </mxCell>
        <mxCell id="7EVLLb8pi6bqAcfZyfd--58" value="" style="endArrow=none;html=1;rounded=0;entryX=0;entryY=0;entryDx=0;entryDy=0;exitX=0.5;exitY=1;exitDx=0;exitDy=0;" edge="1" parent="1" source="7EVLLb8pi6bqAcfZyfd--55" target="7EVLLb8pi6bqAcfZyfd--3">
          <mxGeometry width="50" height="50" relative="1" as="geometry">
            <mxPoint x="725" y="323" as="sourcePoint" />
            <mxPoint x="695" y="443" as="targetPoint" />
          </mxGeometry>
        </mxCell>
        <mxCell id="7EVLLb8pi6bqAcfZyfd--60" value="qualification" style="ellipse;whiteSpace=wrap;html=1;align=center;" vertex="1" parent="1">
          <mxGeometry x="685" y="518" width="100" height="40" as="geometry" />
        </mxCell>
        <mxCell id="7EVLLb8pi6bqAcfZyfd--61" value="depatment" style="ellipse;whiteSpace=wrap;html=1;align=center;" vertex="1" parent="1">
          <mxGeometry x="555" y="525" width="100" height="40" as="geometry" />
        </mxCell>
        <mxCell id="7EVLLb8pi6bqAcfZyfd--62" value="" style="endArrow=none;html=1;rounded=0;entryX=0.378;entryY=-0.025;entryDx=0;entryDy=0;exitX=0.75;exitY=1;exitDx=0;exitDy=0;entryPerimeter=0;" edge="1" parent="1" source="7EVLLb8pi6bqAcfZyfd--3" target="7EVLLb8pi6bqAcfZyfd--60">
          <mxGeometry width="50" height="50" relative="1" as="geometry">
            <mxPoint x="745" y="463" as="sourcePoint" />
            <mxPoint x="731.5" y="520" as="targetPoint" />
          </mxGeometry>
        </mxCell>
        <mxCell id="7EVLLb8pi6bqAcfZyfd--63" value="" style="endArrow=none;html=1;rounded=0;entryX=0.64;entryY=0.05;entryDx=0;entryDy=0;exitX=0.25;exitY=1;exitDx=0;exitDy=0;entryPerimeter=0;" edge="1" parent="1" source="7EVLLb8pi6bqAcfZyfd--3" target="7EVLLb8pi6bqAcfZyfd--61">
          <mxGeometry width="50" height="50" relative="1" as="geometry">
            <mxPoint x="755" y="473" as="sourcePoint" />
            <mxPoint x="620.3000000000002" y="525" as="targetPoint" />
          </mxGeometry>
        </mxCell>
        <mxCell id="7EVLLb8pi6bqAcfZyfd--68" style="edgeStyle=orthogonalEdgeStyle;rounded=0;orthogonalLoop=1;jettySize=auto;html=1;exitX=1;exitY=0.5;exitDx=0;exitDy=0;" edge="1" parent="1" source="7EVLLb8pi6bqAcfZyfd--64" target="7EVLLb8pi6bqAcfZyfd--4">
          <mxGeometry relative="1" as="geometry" />
        </mxCell>
        <mxCell id="7EVLLb8pi6bqAcfZyfd--64" value="works in" style="shape=rhombus;perimeter=rhombusPerimeter;whiteSpace=wrap;html=1;align=center;" vertex="1" parent="1">
          <mxGeometry x="905" y="423" width="120" height="60" as="geometry" />
        </mxCell>
        <mxCell id="7EVLLb8pi6bqAcfZyfd--65" value="" style="endArrow=none;html=1;rounded=0;entryX=1;entryY=0.5;entryDx=0;entryDy=0;exitX=0;exitY=0.5;exitDx=0;exitDy=0;" edge="1" parent="1" source="7EVLLb8pi6bqAcfZyfd--64" target="7EVLLb8pi6bqAcfZyfd--3">
          <mxGeometry width="50" height="50" relative="1" as="geometry">
            <mxPoint x="925" y="163" as="sourcePoint" />
            <mxPoint x="746.48" y="275" as="targetPoint" />
          </mxGeometry>
        </mxCell>
        <mxCell id="7EVLLb8pi6bqAcfZyfd--67" value="" style="endArrow=none;html=1;rounded=0;entryX=1;entryY=0.5;entryDx=0;entryDy=0;exitX=0;exitY=0;exitDx=0;exitDy=0;" edge="1" parent="1" source="7EVLLb8pi6bqAcfZyfd--17" target="7EVLLb8pi6bqAcfZyfd--4">
          <mxGeometry width="50" height="50" relative="1" as="geometry">
            <mxPoint x="1275" y="558" as="sourcePoint" />
            <mxPoint x="1105" y="558" as="targetPoint" />
          </mxGeometry>
        </mxCell>
        <mxCell id="7EVLLb8pi6bqAcfZyfd--69" value="name" style="ellipse;whiteSpace=wrap;html=1;align=center;" vertex="1" parent="1">
          <mxGeometry x="1245" y="363" width="100" height="40" as="geometry" />
        </mxCell>
        <mxCell id="7EVLLb8pi6bqAcfZyfd--70" value="address" style="ellipse;whiteSpace=wrap;html=1;align=center;" vertex="1" parent="1">
          <mxGeometry x="1115" y="353" width="100" height="40" as="geometry" />
        </mxCell>
        <mxCell id="7EVLLb8pi6bqAcfZyfd--71" value="count of beds" style="ellipse;whiteSpace=wrap;html=1;align=center;" vertex="1" parent="1">
          <mxGeometry x="1130" y="518" width="100" height="40" as="geometry" />
        </mxCell>
        <mxCell id="7EVLLb8pi6bqAcfZyfd--72" value="" style="endArrow=none;html=1;rounded=0;entryX=0.5;entryY=0;entryDx=0;entryDy=0;exitX=0.5;exitY=1;exitDx=0;exitDy=0;" edge="1" parent="1" source="7EVLLb8pi6bqAcfZyfd--70" target="7EVLLb8pi6bqAcfZyfd--4">
          <mxGeometry width="50" height="50" relative="1" as="geometry">
            <mxPoint x="1279.6446609406726" y="493.85786437626894" as="sourcePoint" />
            <mxPoint x="1225" y="463" as="targetPoint" />
          </mxGeometry>
        </mxCell>
        <mxCell id="7EVLLb8pi6bqAcfZyfd--73" value="" style="endArrow=none;html=1;rounded=0;entryX=1;entryY=0;entryDx=0;entryDy=0;exitX=0;exitY=1;exitDx=0;exitDy=0;" edge="1" parent="1" source="7EVLLb8pi6bqAcfZyfd--69" target="7EVLLb8pi6bqAcfZyfd--4">
          <mxGeometry width="50" height="50" relative="1" as="geometry">
            <mxPoint x="1289.6446609406726" y="503.85786437626894" as="sourcePoint" />
            <mxPoint x="1235" y="473" as="targetPoint" />
          </mxGeometry>
        </mxCell>
        <mxCell id="7EVLLb8pi6bqAcfZyfd--74" value="" style="endArrow=none;html=1;rounded=0;entryX=0.5;entryY=1;entryDx=0;entryDy=0;exitX=0.428;exitY=0.038;exitDx=0;exitDy=0;exitPerimeter=0;" edge="1" parent="1" source="7EVLLb8pi6bqAcfZyfd--71" target="7EVLLb8pi6bqAcfZyfd--4">
          <mxGeometry width="50" height="50" relative="1" as="geometry">
            <mxPoint x="1130" y="500" as="sourcePoint" />
            <mxPoint x="1245" y="483" as="targetPoint" />
          </mxGeometry>
        </mxCell>
        <mxCell id="7EVLLb8pi6bqAcfZyfd--152" style="edgeStyle=orthogonalEdgeStyle;rounded=0;orthogonalLoop=1;jettySize=auto;html=1;entryX=0.59;entryY=1.007;entryDx=0;entryDy=0;entryPerimeter=0;" edge="1" parent="1" source="7EVLLb8pi6bqAcfZyfd--75" target="7EVLLb8pi6bqAcfZyfd--2">
          <mxGeometry relative="1" as="geometry" />
        </mxCell>
        <mxCell id="7EVLLb8pi6bqAcfZyfd--75" value="admits" style="shape=rhombus;perimeter=rhombusPerimeter;whiteSpace=wrap;html=1;align=center;" vertex="1" parent="1">
          <mxGeometry x="965" y="313" width="120" height="60" as="geometry" />
        </mxCell>
        <mxCell id="7EVLLb8pi6bqAcfZyfd--76" value="" style="endArrow=none;html=1;rounded=0;entryX=0;entryY=0;entryDx=0;entryDy=0;" edge="1" parent="1" source="7EVLLb8pi6bqAcfZyfd--75" target="7EVLLb8pi6bqAcfZyfd--4">
          <mxGeometry width="50" height="50" relative="1" as="geometry">
            <mxPoint x="1175" y="403" as="sourcePoint" />
            <mxPoint x="1175" y="443" as="targetPoint" />
          </mxGeometry>
        </mxCell>
        <mxCell id="7EVLLb8pi6bqAcfZyfd--78" value="" style="endArrow=none;html=1;rounded=0;entryX=0.053;entryY=0.738;entryDx=0;entryDy=0;exitX=1;exitY=0.5;exitDx=0;exitDy=0;entryPerimeter=0;" edge="1" parent="1" source="7EVLLb8pi6bqAcfZyfd--8" target="7EVLLb8pi6bqAcfZyfd--14">
          <mxGeometry width="50" height="50" relative="1" as="geometry">
            <mxPoint x="1530" y="186" as="sourcePoint" />
            <mxPoint x="1590" y="186" as="targetPoint" />
          </mxGeometry>
        </mxCell>
        <mxCell id="7EVLLb8pi6bqAcfZyfd--83" style="edgeStyle=orthogonalEdgeStyle;rounded=0;orthogonalLoop=1;jettySize=auto;html=1;exitX=1;exitY=0.5;exitDx=0;exitDy=0;entryX=0;entryY=0.5;entryDx=0;entryDy=0;" edge="1" parent="1" source="7EVLLb8pi6bqAcfZyfd--79" target="7EVLLb8pi6bqAcfZyfd--8">
          <mxGeometry relative="1" as="geometry" />
        </mxCell>
        <mxCell id="7EVLLb8pi6bqAcfZyfd--79" value="has" style="shape=rhombus;perimeter=rhombusPerimeter;whiteSpace=wrap;html=1;align=center;" vertex="1" parent="1">
          <mxGeometry x="1210" y="53" width="120" height="60" as="geometry" />
        </mxCell>
        <mxCell id="7EVLLb8pi6bqAcfZyfd--82" value="" style="endArrow=none;html=1;rounded=0;entryX=0;entryY=0.5;entryDx=0;entryDy=0;exitX=1;exitY=0;exitDx=0;exitDy=0;" edge="1" parent="1" source="7EVLLb8pi6bqAcfZyfd--2" target="7EVLLb8pi6bqAcfZyfd--79">
          <mxGeometry width="50" height="50" relative="1" as="geometry">
            <mxPoint x="990.3000000000002" y="132.51999999999998" as="sourcePoint" />
            <mxPoint x="1055" y="73" as="targetPoint" />
          </mxGeometry>
        </mxCell>
        <mxCell id="7EVLLb8pi6bqAcfZyfd--84" value="name" style="ellipse;whiteSpace=wrap;html=1;align=center;" vertex="1" parent="1">
          <mxGeometry x="1510" y="103" width="100" height="40" as="geometry" />
        </mxCell>
        <mxCell id="7EVLLb8pi6bqAcfZyfd--85" value="seriousness&lt;br&gt;level" style="ellipse;whiteSpace=wrap;html=1;align=center;" vertex="1" parent="1">
          <mxGeometry x="1380" y="133" width="100" height="63" as="geometry" />
        </mxCell>
        <mxCell id="7EVLLb8pi6bqAcfZyfd--86" value="" style="endArrow=none;html=1;rounded=0;entryX=0.053;entryY=0.225;entryDx=0;entryDy=0;exitX=1;exitY=1;exitDx=0;exitDy=0;entryPerimeter=0;" edge="1" parent="1" source="7EVLLb8pi6bqAcfZyfd--8" target="7EVLLb8pi6bqAcfZyfd--84">
          <mxGeometry width="50" height="50" relative="1" as="geometry">
            <mxPoint x="1490" y="93" as="sourcePoint" />
            <mxPoint x="1545.3000000000002" y="62.51999999999998" as="targetPoint" />
          </mxGeometry>
        </mxCell>
        <mxCell id="7EVLLb8pi6bqAcfZyfd--87" value="" style="endArrow=none;html=1;rounded=0;exitX=0.5;exitY=1;exitDx=0;exitDy=0;" edge="1" parent="1" source="7EVLLb8pi6bqAcfZyfd--8" target="7EVLLb8pi6bqAcfZyfd--85">
          <mxGeometry width="50" height="50" relative="1" as="geometry">
            <mxPoint x="1500" y="103" as="sourcePoint" />
            <mxPoint x="1555.3000000000002" y="72.51999999999998" as="targetPoint" />
          </mxGeometry>
        </mxCell>
        <mxCell id="7EVLLb8pi6bqAcfZyfd--93" style="edgeStyle=orthogonalEdgeStyle;rounded=0;orthogonalLoop=1;jettySize=auto;html=1;exitX=0.5;exitY=1;exitDx=0;exitDy=0;entryX=0.5;entryY=0;entryDx=0;entryDy=0;" edge="1" parent="1" source="7EVLLb8pi6bqAcfZyfd--88" target="7EVLLb8pi6bqAcfZyfd--5">
          <mxGeometry relative="1" as="geometry" />
        </mxCell>
        <mxCell id="7EVLLb8pi6bqAcfZyfd--88" value="gets in" style="shape=rhombus;perimeter=rhombusPerimeter;whiteSpace=wrap;html=1;align=center;" vertex="1" parent="1">
          <mxGeometry x="90" y="143" width="120" height="60" as="geometry" />
        </mxCell>
        <mxCell id="7EVLLb8pi6bqAcfZyfd--91" value="" style="endArrow=none;html=1;rounded=0;entryX=1;entryY=0;entryDx=0;entryDy=0;exitX=0;exitY=0.25;exitDx=0;exitDy=0;" edge="1" parent="1" source="7EVLLb8pi6bqAcfZyfd--1" target="7EVLLb8pi6bqAcfZyfd--88">
          <mxGeometry width="50" height="50" relative="1" as="geometry">
            <mxPoint x="277.5" y="213.01999999999998" as="sourcePoint" />
            <mxPoint x="269.99688084719446" y="152.99504677755567" as="targetPoint" />
            <Array as="points">
              <mxPoint x="210" y="133" />
            </Array>
          </mxGeometry>
        </mxCell>
        <mxCell id="7EVLLb8pi6bqAcfZyfd--94" value="" style="endArrow=none;html=1;rounded=0;entryX=0.75;entryY=1;entryDx=0;entryDy=0;exitX=0.5;exitY=0;exitDx=0;exitDy=0;" edge="1" parent="1" source="7EVLLb8pi6bqAcfZyfd--16" target="7EVLLb8pi6bqAcfZyfd--5">
          <mxGeometry width="50" height="50" relative="1" as="geometry">
            <mxPoint x="160" y="460.76" as="sourcePoint" />
            <mxPoint x="198.5" y="360" as="targetPoint" />
          </mxGeometry>
        </mxCell>
        <mxCell id="7EVLLb8pi6bqAcfZyfd--95" value="type" style="ellipse;whiteSpace=wrap;html=1;align=center;" vertex="1" parent="1">
          <mxGeometry x="20" y="450" width="100" height="40" as="geometry" />
        </mxCell>
        <mxCell id="7EVLLb8pi6bqAcfZyfd--96" value="date" style="ellipse;whiteSpace=wrap;html=1;align=center;" vertex="1" parent="1">
          <mxGeometry x="10" y="243" width="100" height="40" as="geometry" />
        </mxCell>
        <mxCell id="7EVLLb8pi6bqAcfZyfd--97" value="" style="endArrow=none;html=1;rounded=0;entryX=1;entryY=1;entryDx=0;entryDy=0;exitX=0.25;exitY=0;exitDx=0;exitDy=0;" edge="1" parent="1" source="7EVLLb8pi6bqAcfZyfd--5" target="7EVLLb8pi6bqAcfZyfd--96">
          <mxGeometry width="50" height="50" relative="1" as="geometry">
            <mxPoint x="180" y="393" as="sourcePoint" />
            <mxPoint x="160" y="353" as="targetPoint" />
          </mxGeometry>
        </mxCell>
        <mxCell id="7EVLLb8pi6bqAcfZyfd--98" value="" style="endArrow=none;html=1;rounded=0;entryX=0.25;entryY=1;entryDx=0;entryDy=0;exitX=0.59;exitY=-0.075;exitDx=0;exitDy=0;exitPerimeter=0;" edge="1" parent="1" source="7EVLLb8pi6bqAcfZyfd--95" target="7EVLLb8pi6bqAcfZyfd--5">
          <mxGeometry width="50" height="50" relative="1" as="geometry">
            <mxPoint x="190" y="403" as="sourcePoint" />
            <mxPoint x="185" y="353" as="targetPoint" />
          </mxGeometry>
        </mxCell>
        <mxCell id="7EVLLb8pi6bqAcfZyfd--101" style="edgeStyle=orthogonalEdgeStyle;rounded=0;orthogonalLoop=1;jettySize=auto;html=1;exitX=0.5;exitY=0;exitDx=0;exitDy=0;entryX=0;entryY=0.5;entryDx=0;entryDy=0;" edge="1" parent="1" source="7EVLLb8pi6bqAcfZyfd--99" target="7EVLLb8pi6bqAcfZyfd--1">
          <mxGeometry relative="1" as="geometry" />
        </mxCell>
        <mxCell id="7EVLLb8pi6bqAcfZyfd--99" value="with" style="shape=rhombus;perimeter=rhombusPerimeter;whiteSpace=wrap;html=1;align=center;" vertex="1" parent="1">
          <mxGeometry x="190" y="223" width="120" height="60" as="geometry" />
        </mxCell>
        <mxCell id="7EVLLb8pi6bqAcfZyfd--100" value="" style="endArrow=none;html=1;rounded=0;entryX=1;entryY=0;entryDx=0;entryDy=0;exitX=0;exitY=1;exitDx=0;exitDy=0;" edge="1" parent="1" source="7EVLLb8pi6bqAcfZyfd--99" target="7EVLLb8pi6bqAcfZyfd--5">
          <mxGeometry width="50" height="50" relative="1" as="geometry">
            <mxPoint x="190" y="403" as="sourcePoint" />
            <mxPoint x="185" y="353" as="targetPoint" />
          </mxGeometry>
        </mxCell>
        <mxCell id="7EVLLb8pi6bqAcfZyfd--103" value="" style="endArrow=none;html=1;rounded=0;entryX=0.5;entryY=0;entryDx=0;entryDy=0;exitX=0;exitY=1;exitDx=0;exitDy=0;" edge="1" parent="1" source="7EVLLb8pi6bqAcfZyfd--7" target="7EVLLb8pi6bqAcfZyfd--18">
          <mxGeometry width="50" height="50" relative="1" as="geometry">
            <mxPoint x="259" y="392" as="sourcePoint" />
            <mxPoint x="254" y="342" as="targetPoint" />
          </mxGeometry>
        </mxCell>
        <mxCell id="7EVLLb8pi6bqAcfZyfd--104" value="depatment" style="ellipse;whiteSpace=wrap;html=1;align=center;" vertex="1" parent="1">
          <mxGeometry x="289" y="1089" width="100" height="40" as="geometry" />
        </mxCell>
        <mxCell id="7EVLLb8pi6bqAcfZyfd--105" value="depatment" style="ellipse;whiteSpace=wrap;html=1;align=center;" vertex="1" parent="1">
          <mxGeometry x="79" y="899" width="100" height="40" as="geometry" />
        </mxCell>
        <mxCell id="7EVLLb8pi6bqAcfZyfd--106" value="depatment" style="ellipse;whiteSpace=wrap;html=1;align=center;" vertex="1" parent="1">
          <mxGeometry x="394" y="994" width="100" height="40" as="geometry" />
        </mxCell>
        <mxCell id="7EVLLb8pi6bqAcfZyfd--107" value="depatment" style="ellipse;whiteSpace=wrap;html=1;align=center;" vertex="1" parent="1">
          <mxGeometry x="209" y="849" width="100" height="40" as="geometry" />
        </mxCell>
        <mxCell id="7EVLLb8pi6bqAcfZyfd--108" value="" style="endArrow=none;html=1;rounded=0;entryX=0;entryY=0;entryDx=0;entryDy=0;exitX=1;exitY=1;exitDx=0;exitDy=0;" edge="1" parent="1" source="7EVLLb8pi6bqAcfZyfd--105" target="7EVLLb8pi6bqAcfZyfd--7">
          <mxGeometry width="50" height="50" relative="1" as="geometry">
            <mxPoint x="219" y="1049" as="sourcePoint" />
            <mxPoint x="149" y="1099" as="targetPoint" />
          </mxGeometry>
        </mxCell>
        <mxCell id="7EVLLb8pi6bqAcfZyfd--109" value="" style="endArrow=none;html=1;rounded=0;entryX=0.5;entryY=0;entryDx=0;entryDy=0;exitX=0.5;exitY=1;exitDx=0;exitDy=0;" edge="1" parent="1" source="7EVLLb8pi6bqAcfZyfd--107" target="7EVLLb8pi6bqAcfZyfd--7">
          <mxGeometry width="50" height="50" relative="1" as="geometry">
            <mxPoint x="174.35533905932743" y="943.1421356237311" as="sourcePoint" />
            <mxPoint x="219" y="999" as="targetPoint" />
          </mxGeometry>
        </mxCell>
        <mxCell id="7EVLLb8pi6bqAcfZyfd--110" value="" style="endArrow=none;html=1;rounded=0;entryX=1;entryY=0.5;entryDx=0;entryDy=0;exitX=0;exitY=0.5;exitDx=0;exitDy=0;" edge="1" parent="1" source="7EVLLb8pi6bqAcfZyfd--106" target="7EVLLb8pi6bqAcfZyfd--7">
          <mxGeometry width="50" height="50" relative="1" as="geometry">
            <mxPoint x="184.35533905932743" y="953.1421356237311" as="sourcePoint" />
            <mxPoint x="229" y="1009" as="targetPoint" />
          </mxGeometry>
        </mxCell>
        <mxCell id="7EVLLb8pi6bqAcfZyfd--111" value="" style="endArrow=none;html=1;rounded=0;entryX=0.353;entryY=-0.075;entryDx=0;entryDy=0;exitX=0.75;exitY=1;exitDx=0;exitDy=0;entryPerimeter=0;" edge="1" parent="1" source="7EVLLb8pi6bqAcfZyfd--7" target="7EVLLb8pi6bqAcfZyfd--104">
          <mxGeometry width="50" height="50" relative="1" as="geometry">
            <mxPoint x="194.35533905932743" y="963.1421356237311" as="sourcePoint" />
            <mxPoint x="239" y="1019" as="targetPoint" />
          </mxGeometry>
        </mxCell>
        <mxCell id="7EVLLb8pi6bqAcfZyfd--114" style="edgeStyle=orthogonalEdgeStyle;rounded=0;orthogonalLoop=1;jettySize=auto;html=1;entryX=0.5;entryY=1;entryDx=0;entryDy=0;" edge="1" parent="1" source="7EVLLb8pi6bqAcfZyfd--112" target="7EVLLb8pi6bqAcfZyfd--6">
          <mxGeometry relative="1" as="geometry" />
        </mxCell>
        <mxCell id="7EVLLb8pi6bqAcfZyfd--112" value="gives" style="shape=rhombus;perimeter=rhombusPerimeter;whiteSpace=wrap;html=1;align=center;" vertex="1" parent="1">
          <mxGeometry x="339" y="829" width="120" height="60" as="geometry" />
        </mxCell>
        <mxCell id="7EVLLb8pi6bqAcfZyfd--113" value="" style="endArrow=none;html=1;rounded=0;exitX=0;exitY=1;exitDx=0;exitDy=0;" edge="1" parent="1" source="7EVLLb8pi6bqAcfZyfd--112" target="7EVLLb8pi6bqAcfZyfd--7">
          <mxGeometry width="50" height="50" relative="1" as="geometry">
            <mxPoint x="269" y="899" as="sourcePoint" />
            <mxPoint x="309" y="989" as="targetPoint" />
          </mxGeometry>
        </mxCell>
        <mxCell id="7EVLLb8pi6bqAcfZyfd--115" value="" style="endArrow=none;html=1;rounded=0;exitX=0;exitY=1;exitDx=0;exitDy=0;entryX=0.715;entryY=0.05;entryDx=0;entryDy=0;entryPerimeter=0;" edge="1" parent="1" source="7EVLLb8pi6bqAcfZyfd--6" target="7EVLLb8pi6bqAcfZyfd--15">
          <mxGeometry width="50" height="50" relative="1" as="geometry">
            <mxPoint x="310" y="895" as="sourcePoint" />
            <mxPoint x="219.64285714285734" y="1010" as="targetPoint" />
          </mxGeometry>
        </mxCell>
        <mxCell id="7EVLLb8pi6bqAcfZyfd--116" value="date" style="ellipse;whiteSpace=wrap;html=1;align=center;" vertex="1" parent="1">
          <mxGeometry x="170" y="565" width="100" height="40" as="geometry" />
        </mxCell>
        <mxCell id="7EVLLb8pi6bqAcfZyfd--117" value="name" style="ellipse;whiteSpace=wrap;html=1;align=center;" vertex="1" parent="1">
          <mxGeometry x="415" y="705" width="100" height="40" as="geometry" />
        </mxCell>
        <mxCell id="7EVLLb8pi6bqAcfZyfd--118" value="type" style="ellipse;whiteSpace=wrap;html=1;align=center;" vertex="1" parent="1">
          <mxGeometry x="415" y="580" width="100" height="40" as="geometry" />
        </mxCell>
        <mxCell id="7EVLLb8pi6bqAcfZyfd--119" value="" style="endArrow=none;html=1;rounded=0;exitX=0.05;exitY=0.75;exitDx=0;exitDy=0;entryX=0.928;entryY=0.019;entryDx=0;entryDy=0;entryPerimeter=0;exitPerimeter=0;" edge="1" parent="1" source="7EVLLb8pi6bqAcfZyfd--118" target="7EVLLb8pi6bqAcfZyfd--6">
          <mxGeometry width="50" height="50" relative="1" as="geometry">
            <mxPoint x="290" y="690" as="sourcePoint" />
            <mxPoint x="251.5" y="732" as="targetPoint" />
          </mxGeometry>
        </mxCell>
        <mxCell id="7EVLLb8pi6bqAcfZyfd--120" value="" style="endArrow=none;html=1;rounded=0;exitX=0.928;exitY=0.988;exitDx=0;exitDy=0;entryX=0.253;entryY=0.113;entryDx=0;entryDy=0;entryPerimeter=0;exitPerimeter=0;" edge="1" parent="1" source="7EVLLb8pi6bqAcfZyfd--6" target="7EVLLb8pi6bqAcfZyfd--117">
          <mxGeometry width="50" height="50" relative="1" as="geometry">
            <mxPoint x="300" y="700" as="sourcePoint" />
            <mxPoint x="261.5" y="742" as="targetPoint" />
          </mxGeometry>
        </mxCell>
        <mxCell id="7EVLLb8pi6bqAcfZyfd--121" value="" style="endArrow=none;html=1;rounded=0;exitX=0;exitY=0;exitDx=0;exitDy=0;entryX=0.953;entryY=0.8;entryDx=0;entryDy=0;entryPerimeter=0;" edge="1" parent="1" source="7EVLLb8pi6bqAcfZyfd--6" target="7EVLLb8pi6bqAcfZyfd--116">
          <mxGeometry width="50" height="50" relative="1" as="geometry">
            <mxPoint x="310" y="710" as="sourcePoint" />
            <mxPoint x="271.5" y="752" as="targetPoint" />
          </mxGeometry>
        </mxCell>
        <mxCell id="7EVLLb8pi6bqAcfZyfd--124" style="edgeStyle=orthogonalEdgeStyle;rounded=0;orthogonalLoop=1;jettySize=auto;html=1;exitX=0.5;exitY=0;exitDx=0;exitDy=0;entryX=0.428;entryY=1.007;entryDx=0;entryDy=0;entryPerimeter=0;" edge="1" parent="1" source="7EVLLb8pi6bqAcfZyfd--122" target="7EVLLb8pi6bqAcfZyfd--1">
          <mxGeometry relative="1" as="geometry" />
        </mxCell>
        <mxCell id="7EVLLb8pi6bqAcfZyfd--122" value="to" style="shape=rhombus;perimeter=rhombusPerimeter;whiteSpace=wrap;html=1;align=center;" vertex="1" parent="1">
          <mxGeometry x="290" y="413" width="120" height="60" as="geometry" />
        </mxCell>
        <mxCell id="7EVLLb8pi6bqAcfZyfd--123" value="" style="endArrow=none;html=1;rounded=0;exitX=0.5;exitY=0;exitDx=0;exitDy=0;entryX=0.5;entryY=1;entryDx=0;entryDy=0;" edge="1" parent="1" source="7EVLLb8pi6bqAcfZyfd--6" target="7EVLLb8pi6bqAcfZyfd--122">
          <mxGeometry width="50" height="50" relative="1" as="geometry">
            <mxPoint x="290" y="650" as="sourcePoint" />
            <mxPoint x="275.3000000000002" y="607" as="targetPoint" />
          </mxGeometry>
        </mxCell>
        <mxCell id="7EVLLb8pi6bqAcfZyfd--138" style="edgeStyle=orthogonalEdgeStyle;rounded=0;orthogonalLoop=1;jettySize=auto;html=1;entryX=0;entryY=0.5;entryDx=0;entryDy=0;exitX=0.5;exitY=1;exitDx=0;exitDy=0;" edge="1" parent="1" source="7EVLLb8pi6bqAcfZyfd--125" target="7EVLLb8pi6bqAcfZyfd--11">
          <mxGeometry relative="1" as="geometry">
            <Array as="points">
              <mxPoint x="1380" y="425" />
            </Array>
          </mxGeometry>
        </mxCell>
        <mxCell id="7EVLLb8pi6bqAcfZyfd--125" value="announces in" style="shape=rhombus;perimeter=rhombusPerimeter;whiteSpace=wrap;html=1;align=center;" vertex="1" parent="1">
          <mxGeometry x="1320" y="213" width="120" height="60" as="geometry" />
        </mxCell>
        <mxCell id="7EVLLb8pi6bqAcfZyfd--126" value="" style="endArrow=none;html=1;rounded=0;entryX=0.315;entryY=0.221;entryDx=0;entryDy=0;exitX=1;exitY=1;exitDx=0;exitDy=0;entryPerimeter=0;" edge="1" parent="1" source="7EVLLb8pi6bqAcfZyfd--2" target="7EVLLb8pi6bqAcfZyfd--125">
          <mxGeometry width="50" height="50" relative="1" as="geometry">
            <mxPoint x="1025" y="153" as="sourcePoint" />
            <mxPoint x="1085" y="153" as="targetPoint" />
          </mxGeometry>
        </mxCell>
        <mxCell id="7EVLLb8pi6bqAcfZyfd--129" value="" style="endArrow=none;html=1;rounded=0;exitX=0.5;exitY=1;exitDx=0;exitDy=0;entryX=0.5;entryY=0;entryDx=0;entryDy=0;" edge="1" parent="1" source="7EVLLb8pi6bqAcfZyfd--11" target="7EVLLb8pi6bqAcfZyfd--20">
          <mxGeometry width="50" height="50" relative="1" as="geometry">
            <mxPoint x="1440" y="113" as="sourcePoint" />
            <mxPoint x="1461.3809834124004" y="190.47154028464138" as="targetPoint" />
          </mxGeometry>
        </mxCell>
        <mxCell id="7EVLLb8pi6bqAcfZyfd--130" value="datetime" style="ellipse;whiteSpace=wrap;html=1;align=center;" vertex="1" parent="1">
          <mxGeometry x="1440" y="333" width="100" height="40" as="geometry" />
        </mxCell>
        <mxCell id="7EVLLb8pi6bqAcfZyfd--131" value="name of platform" style="ellipse;whiteSpace=wrap;html=1;align=center;" vertex="1" parent="1">
          <mxGeometry x="1540" y="290" width="100" height="40" as="geometry" />
        </mxCell>
        <mxCell id="7EVLLb8pi6bqAcfZyfd--132" value="postlink" style="ellipse;whiteSpace=wrap;html=1;align=center;" vertex="1" parent="1">
          <mxGeometry x="1410" y="473" width="100" height="40" as="geometry" />
        </mxCell>
        <mxCell id="7EVLLb8pi6bqAcfZyfd--133" value="is verified" style="ellipse;whiteSpace=wrap;html=1;align=center;" vertex="1" parent="1">
          <mxGeometry x="1540" y="600" width="100" height="40" as="geometry" />
        </mxCell>
        <mxCell id="7EVLLb8pi6bqAcfZyfd--134" value="" style="endArrow=none;html=1;rounded=0;entryX=0.5;entryY=1;entryDx=0;entryDy=0;exitX=0.578;exitY=-0.035;exitDx=0;exitDy=0;exitPerimeter=0;" edge="1" parent="1" source="7EVLLb8pi6bqAcfZyfd--11" target="7EVLLb8pi6bqAcfZyfd--131">
          <mxGeometry width="50" height="50" relative="1" as="geometry">
            <mxPoint x="1490" y="93" as="sourcePoint" />
            <mxPoint x="1545.3000000000002" y="62.51999999999998" as="targetPoint" />
          </mxGeometry>
        </mxCell>
        <mxCell id="7EVLLb8pi6bqAcfZyfd--135" value="" style="endArrow=none;html=1;rounded=0;entryX=1;entryY=1;entryDx=0;entryDy=0;" edge="1" parent="1" source="7EVLLb8pi6bqAcfZyfd--11" target="7EVLLb8pi6bqAcfZyfd--130">
          <mxGeometry width="50" height="50" relative="1" as="geometry">
            <mxPoint x="1596.5" y="405.75" as="sourcePoint" />
            <mxPoint x="1607.8000000000002" y="342" as="targetPoint" />
          </mxGeometry>
        </mxCell>
        <mxCell id="7EVLLb8pi6bqAcfZyfd--136" value="" style="endArrow=none;html=1;rounded=0;entryX=0;entryY=1;entryDx=0;entryDy=0;" edge="1" parent="1" source="7EVLLb8pi6bqAcfZyfd--132" target="7EVLLb8pi6bqAcfZyfd--11">
          <mxGeometry width="50" height="50" relative="1" as="geometry">
            <mxPoint x="1606.5" y="415.75" as="sourcePoint" />
            <mxPoint x="1617.8000000000002" y="352" as="targetPoint" />
          </mxGeometry>
        </mxCell>
        <mxCell id="7EVLLb8pi6bqAcfZyfd--137" value="" style="endArrow=none;html=1;rounded=0;exitX=0.75;exitY=1;exitDx=0;exitDy=0;" edge="1" parent="1" source="7EVLLb8pi6bqAcfZyfd--11" target="7EVLLb8pi6bqAcfZyfd--133">
          <mxGeometry width="50" height="50" relative="1" as="geometry">
            <mxPoint x="1616.5" y="425.75" as="sourcePoint" />
            <mxPoint x="1627.8000000000002" y="362" as="targetPoint" />
            <Array as="points">
              <mxPoint x="1610" y="550" />
            </Array>
          </mxGeometry>
        </mxCell>
        <mxCell id="7EVLLb8pi6bqAcfZyfd--139" value="" style="endArrow=none;html=1;rounded=0;exitX=0.5;exitY=0;exitDx=0;exitDy=0;entryX=1;entryY=0.5;entryDx=0;entryDy=0;" edge="1" parent="1" source="7EVLLb8pi6bqAcfZyfd--19" target="7EVLLb8pi6bqAcfZyfd--10">
          <mxGeometry width="50" height="50" relative="1" as="geometry">
            <mxPoint x="1580" y="460" as="sourcePoint" />
            <mxPoint x="1550" y="535" as="targetPoint" />
          </mxGeometry>
        </mxCell>
        <mxCell id="7EVLLb8pi6bqAcfZyfd--140" value="postlink" style="ellipse;whiteSpace=wrap;html=1;align=center;" vertex="1" parent="1">
          <mxGeometry x="1390" y="870" width="100" height="40" as="geometry" />
        </mxCell>
        <mxCell id="7EVLLb8pi6bqAcfZyfd--141" value="postlink" style="ellipse;whiteSpace=wrap;html=1;align=center;" vertex="1" parent="1">
          <mxGeometry x="1170" y="1049" width="100" height="40" as="geometry" />
        </mxCell>
        <mxCell id="7EVLLb8pi6bqAcfZyfd--142" value="postlink" style="ellipse;whiteSpace=wrap;html=1;align=center;" vertex="1" parent="1">
          <mxGeometry x="1070" y="954" width="100" height="40" as="geometry" />
        </mxCell>
        <mxCell id="7EVLLb8pi6bqAcfZyfd--143" value="" style="endArrow=none;html=1;rounded=0;exitX=0.3;exitY=1;exitDx=0;exitDy=0;entryX=1;entryY=0.25;entryDx=0;entryDy=0;exitPerimeter=0;" edge="1" parent="1" source="7EVLLb8pi6bqAcfZyfd--140" target="7EVLLb8pi6bqAcfZyfd--10">
          <mxGeometry width="50" height="50" relative="1" as="geometry">
            <mxPoint x="1450" y="1049" as="sourcePoint" />
            <mxPoint x="1365" y="974" as="targetPoint" />
          </mxGeometry>
        </mxCell>
        <mxCell id="7EVLLb8pi6bqAcfZyfd--144" value="" style="endArrow=none;html=1;rounded=0;exitX=0;exitY=0.5;exitDx=0;exitDy=0;entryX=1;entryY=0.5;entryDx=0;entryDy=0;" edge="1" parent="1" source="7EVLLb8pi6bqAcfZyfd--10" target="7EVLLb8pi6bqAcfZyfd--142">
          <mxGeometry width="50" height="50" relative="1" as="geometry">
            <mxPoint x="1460" y="1059" as="sourcePoint" />
            <mxPoint x="1375" y="984" as="targetPoint" />
          </mxGeometry>
        </mxCell>
        <mxCell id="7EVLLb8pi6bqAcfZyfd--145" value="" style="endArrow=none;html=1;rounded=0;exitX=0.653;exitY=-0.081;exitDx=0;exitDy=0;entryX=0.5;entryY=1;entryDx=0;entryDy=0;exitPerimeter=0;" edge="1" parent="1" source="7EVLLb8pi6bqAcfZyfd--141" target="7EVLLb8pi6bqAcfZyfd--10">
          <mxGeometry width="50" height="50" relative="1" as="geometry">
            <mxPoint x="1470" y="1069" as="sourcePoint" />
            <mxPoint x="1385" y="994" as="targetPoint" />
          </mxGeometry>
        </mxCell>
        <mxCell id="7EVLLb8pi6bqAcfZyfd--148" style="edgeStyle=orthogonalEdgeStyle;rounded=0;orthogonalLoop=1;jettySize=auto;html=1;entryX=0.5;entryY=1;entryDx=0;entryDy=0;" edge="1" parent="1" source="7EVLLb8pi6bqAcfZyfd--146" target="7EVLLb8pi6bqAcfZyfd--9">
          <mxGeometry relative="1" as="geometry" />
        </mxCell>
        <mxCell id="7EVLLb8pi6bqAcfZyfd--146" value="does" style="shape=rhombus;perimeter=rhombusPerimeter;whiteSpace=wrap;html=1;align=center;" vertex="1" parent="1">
          <mxGeometry x="1245" y="820" width="120" height="60" as="geometry" />
        </mxCell>
        <mxCell id="7EVLLb8pi6bqAcfZyfd--147" value="" style="endArrow=none;html=1;rounded=0;exitX=0.5;exitY=0;exitDx=0;exitDy=0;entryX=0.5;entryY=1;entryDx=0;entryDy=0;" edge="1" parent="1" source="7EVLLb8pi6bqAcfZyfd--10" target="7EVLLb8pi6bqAcfZyfd--146">
          <mxGeometry width="50" height="50" relative="1" as="geometry">
            <mxPoint x="1265" y="974" as="sourcePoint" />
            <mxPoint x="1180" y="984" as="targetPoint" />
          </mxGeometry>
        </mxCell>
        <mxCell id="7EVLLb8pi6bqAcfZyfd--151" style="edgeStyle=orthogonalEdgeStyle;rounded=0;orthogonalLoop=1;jettySize=auto;html=1;entryX=0.928;entryY=1.038;entryDx=0;entryDy=0;entryPerimeter=0;" edge="1" parent="1" source="7EVLLb8pi6bqAcfZyfd--149" target="7EVLLb8pi6bqAcfZyfd--2">
          <mxGeometry relative="1" as="geometry">
            <Array as="points">
              <mxPoint x="1370" y="620" />
              <mxPoint x="1370" y="340" />
              <mxPoint x="1110" y="340" />
              <mxPoint x="1110" y="200" />
              <mxPoint x="1008" y="200" />
            </Array>
          </mxGeometry>
        </mxCell>
        <mxCell id="7EVLLb8pi6bqAcfZyfd--149" value="on" style="shape=rhombus;perimeter=rhombusPerimeter;whiteSpace=wrap;html=1;align=center;" vertex="1" parent="1">
          <mxGeometry x="1245" y="590" width="120" height="60" as="geometry" />
        </mxCell>
        <mxCell id="7EVLLb8pi6bqAcfZyfd--150" value="" style="endArrow=none;html=1;rounded=0;exitX=0.5;exitY=0;exitDx=0;exitDy=0;entryX=0.5;entryY=1;entryDx=0;entryDy=0;" edge="1" parent="1" source="7EVLLb8pi6bqAcfZyfd--9" target="7EVLLb8pi6bqAcfZyfd--149">
          <mxGeometry width="50" height="50" relative="1" as="geometry">
            <mxPoint x="1315" y="954" as="sourcePoint" />
            <mxPoint x="1315" y="890" as="targetPoint" />
          </mxGeometry>
        </mxCell>
        <mxCell id="7EVLLb8pi6bqAcfZyfd--153" value="postlink" style="ellipse;whiteSpace=wrap;html=1;align=center;" vertex="1" parent="1">
          <mxGeometry x="1085" y="720" width="100" height="40" as="geometry" />
        </mxCell>
        <mxCell id="7EVLLb8pi6bqAcfZyfd--154" value="" style="endArrow=none;html=1;rounded=0;exitX=0;exitY=0.5;exitDx=0;exitDy=0;entryX=1;entryY=0.5;entryDx=0;entryDy=0;" edge="1" parent="1" source="7EVLLb8pi6bqAcfZyfd--9" target="7EVLLb8pi6bqAcfZyfd--153">
          <mxGeometry width="50" height="50" relative="1" as="geometry">
            <mxPoint x="1315" y="954" as="sourcePoint" />
            <mxPoint x="1315" y="890" as="targetPoint" />
          </mxGeometry>
        </mxCell>
        <mxCell id="7EVLLb8pi6bqAcfZyfd--155" value="" style="endArrow=none;html=1;rounded=0;exitX=0;exitY=0.5;exitDx=0;exitDy=0;entryX=1;entryY=0.5;entryDx=0;entryDy=0;" edge="1" parent="1" source="7EVLLb8pi6bqAcfZyfd--22" target="7EVLLb8pi6bqAcfZyfd--9">
          <mxGeometry width="50" height="50" relative="1" as="geometry">
            <mxPoint x="1325" y="964" as="sourcePoint" />
            <mxPoint x="1325" y="900" as="targetPoint" />
          </mxGeometry>
        </mxCell>
        <mxCell id="7EVLLb8pi6bqAcfZyfd--156" value="CHIRAG GHOSH&lt;br style=&quot;font-size: 20px;&quot;&gt;20CS10020" style="text;html=1;strokeColor=none;fillColor=none;align=center;verticalAlign=middle;whiteSpace=wrap;rounded=0;fontStyle=1;fontSize=20;" vertex="1" parent="1">
          <mxGeometry x="679" y="973" width="226" height="92" as="geometry" />
        </mxCell>
      </root>
    </mxGraphModel>
  </diagram>
</mxfile>
